<?xml version="1.0" encoding="UTF-8"?>
<svg version="1.1" xmlns="http://www.w3.org/2000/svg" width="512" height="512">
<path d="M0 0 C1.11158981 -0.00151062 1.11158981 -0.00151062 2.24563599 -0.00305176 C26.41898371 0.01898795 49.63543086 3.72441125 72.875 10.25 C74.1419873 10.6054187 74.1419873 10.6054187 75.43457031 10.96801758 C81.39055801 12.69901321 87.09723027 14.84619242 92.8125 17.25 C93.53848389 17.55470215 94.26446777 17.8594043 95.01245117 18.17333984 C121.6595713 29.51580994 146.00690055 44.1512062 167.30078125 63.921875 C170.1974145 66.60677922 173.16544778 69.19841048 176.15625 71.77734375 C179.36507887 74.63047697 179.36507887 74.63047697 180.8125 76.25 C180.8125 76.91 180.8125 77.57 180.8125 78.25 C181.67101562 78.5903125 181.67101562 78.5903125 182.546875 78.9375 C185.43379471 80.60992245 187.00720494 82.63140185 189.0625 85.25 C190.12210937 86.5803125 190.12210937 86.5803125 191.203125 87.9375 C192.8125 90.25 192.8125 90.25 192.8125 92.25 C193.8025 92.58 194.7925 92.91 195.8125 93.25 C197.40324174 95.17579361 198.83339933 97.07639048 200.25 99.125 C200.68248047 99.74286377 201.11496094 100.36072754 201.56054688 100.99731445 C218.83853831 125.95270641 232.52659383 151.96515472 240.8125 181.25 C241.15925781 182.46042969 241.50601562 183.67085937 241.86328125 184.91796875 C246.50687051 202.21937274 249.44487956 220.3323327 249.8125 238.25 C249.83828125 239.16765137 249.8640625 240.08530273 249.890625 241.03076172 C250.70129656 272.7736201 246.89878482 305.6765939 234.8125 335.25 C234.12979084 336.97979106 233.44881087 338.71026555 232.76953125 340.44140625 C223.49341001 363.80852057 211.52101745 384.60779704 195.8125 404.25 C194.76255859 405.58998047 194.76255859 405.58998047 193.69140625 406.95703125 C184.25245981 418.93510948 184.25245981 418.93510948 179.8125 423.25 C179.1525 423.25 178.4925 423.25 177.8125 423.25 C177.59851563 423.7965625 177.38453125 424.343125 177.1640625 424.90625 C175.34102358 428.06758917 172.86074603 430.31977634 170.1875 432.75 C169.61700928 433.27190918 169.04651855 433.79381836 168.45874023 434.33154297 C162.20978809 439.94391097 155.53245478 444.93227684 148.73095703 449.84912109 C146.97544303 451.13101717 145.24844615 452.44200409 143.52734375 453.76953125 C121.72005433 470.34747066 95.14182739 482.02059146 68.8125 489.25 C67.78511719 489.53230469 66.75773437 489.81460937 65.69921875 490.10546875 C62.74711719 490.8757522 59.7881482 491.57670639 56.8125 492.25 C55.24822266 492.61738281 55.24822266 492.61738281 53.65234375 492.9921875 C24.94526181 499.27085029 -5.09735945 500.37612745 -34.1875 496.25 C-34.95449219 496.14284668 -35.72148437 496.03569336 -36.51171875 495.92529297 C-47.25299626 494.38022227 -57.72027145 492.09736283 -68.1875 489.25 C-69.11046875 489.00378906 -70.0334375 488.75757813 -70.984375 488.50390625 C-76.53022936 486.94082309 -81.75846984 484.84026285 -87.03515625 482.53125 C-89.51416431 481.523673 -91.93590195 480.67513591 -94.48046875 479.8671875 C-121.42636938 471.01550273 -146.63386563 452.37316165 -167.1875 433.25 C-168.57910821 432.0368031 -169.97477188 430.82823786 -171.375 429.625 C-177.96213732 423.85466771 -183.60846161 417.67474778 -189.09765625 410.84375 C-190.78001453 408.75573897 -192.49602626 406.71475577 -194.25 404.6875 C-196.1875 402.25 -196.1875 402.25 -196.1875 400.25 C-196.8475 400.25 -197.5075 400.25 -198.1875 400.25 C-199.59789352 398.27665971 -200.89805161 396.30012211 -202.1875 394.25 C-202.97253058 393.07542023 -203.76169993 391.90359755 -204.5546875 390.734375 C-212.31069304 379.20463881 -219.22658996 367.59526523 -225.29296875 355.08789062 C-226.03760756 353.55796679 -226.79808666 352.03576517 -227.5625 350.515625 C-234.62441227 335.92720097 -238.7703955 320.0261647 -242.1875 304.25 C-242.72740006 301.99957544 -243.2689495 299.74954565 -243.8125 297.5 C-247.51883317 281.28479237 -248.41661497 264.96499677 -248.4375 248.375 C-248.43917175 247.66365906 -248.44084351 246.95231812 -248.44256592 246.21942139 C-248.44932541 197.78495449 -233.47423087 148.58075536 -205.39306641 108.96728516 C-204.11388584 107.14513932 -202.87284357 105.30081007 -201.63671875 103.44921875 C-197.02678294 96.60063531 -197.02678294 96.60063531 -195.1875 94.25 C-194.5275 94.25 -193.8675 94.25 -193.1875 94.25 C-192.92066406 93.66476563 -192.65382812 93.07953125 -192.37890625 92.4765625 C-191.16218941 90.20269824 -189.84700677 88.53834086 -188.125 86.625 C-187.49464844 85.92375 -186.86429688 85.2225 -186.21484375 84.5 C-185.54582031 83.7575 -184.87679687 83.015 -184.1875 82.25 C-183.54941406 81.5075 -182.91132813 80.765 -182.25390625 80 C-173.0326118 69.40161243 -162.59105137 59.47644253 -151.1875 51.25 C-149.60388672 50.08404297 -149.60388672 50.08404297 -147.98828125 48.89453125 C-114.55126314 24.45511074 -77.74683695 9.64892976 -37.0625 2.625 C-36.35843018 2.50165283 -35.65436035 2.37830566 -34.92895508 2.2512207 C-23.34888549 0.32808537 -11.7163335 0.01115326 0 0 Z M-7.1875 81.25 C-7.54875977 81.92764404 -7.91001953 82.60528809 -8.28222656 83.3034668 C-14.56784541 95.07758637 -20.87219163 106.82424834 -27.5625 118.375 C-31.49031514 125.15677424 -35.15903829 132.00232913 -38.59204102 139.046875 C-40.53757443 143.02196647 -42.60443192 146.80935771 -45.08203125 150.4765625 C-47.9717192 155.11231631 -49.56134264 158.74399097 -49.58622742 164.24850464 C-49.59876556 165.42632004 -49.61130371 166.60413544 -49.6242218 167.81764221 C-49.62278671 169.09582321 -49.62135162 170.37400421 -49.61987305 171.69091797 C-49.62889681 173.06125265 -49.63922554 174.43157927 -49.65075684 175.80189514 C-49.67828112 179.51012074 -49.68760507 183.21819298 -49.69361091 186.92650747 C-49.70300654 190.8063013 -49.72921087 194.68598113 -49.75361633 198.56570435 C-49.79725238 205.90721189 -49.82581708 213.24869727 -49.84893972 220.59029496 C-49.87600694 228.9506793 -49.91991749 237.31094879 -49.96522844 245.67125106 C-50.05803323 262.8641082 -50.129733 280.05699016 -50.1875 297.25 C-63.93128604 297.31968707 -77.67502964 297.37290615 -91.41895676 297.40543652 C-97.80166643 297.42105396 -104.18425471 297.44222055 -110.56689453 297.47631836 C-116.73310785 297.50905166 -122.89920481 297.52688247 -129.06549835 297.53463173 C-131.41127604 297.5401502 -133.75704778 297.55092612 -136.10277557 297.56719017 C-155.64550246 297.69722982 -169.19293393 296.16084708 -185.1875 284.25 C-184.73813132 290.59822426 -183.19325184 295.08249466 -180.125 300.625 C-179.72087891 301.36741943 -179.31675781 302.10983887 -178.90039062 302.87475586 C-168.6074433 321.33642136 -153.36117054 333.33281924 -133.3359375 339.41796875 C-126.38413549 341.25510749 -119.82353618 341.38725838 -112.67431641 341.36352539 C-111.50395529 341.36364593 -110.33359417 341.36376646 -109.12776756 341.36389065 C-105.34817972 341.36314566 -101.5686415 341.35553626 -97.7890625 341.34765625 C-95.4520673 341.34618555 -93.11507177 341.34516563 -90.77807617 341.34460449 C-82.12287908 341.33936647 -73.46768905 341.32540524 -64.8125 341.3125 C-45.46625 341.291875 -26.12 341.27125 -6.1875 341.25 C-6.1875 279.21 -6.1875 217.17 -6.1875 153.25 C-7.5075 152.59 -8.8275 151.93 -10.1875 151.25 C-11.64594257 146.66632334 -10.96533897 143.64230803 -9.1875 139.25 C-8.5275 139.25 -7.8675 139.25 -7.1875 139.25 C-5.89086078 136.65672157 -6.06746431 134.78591932 -6.07397461 131.88232422 C-6.07405014 130.76131317 -6.07412567 129.64030212 -6.07420349 128.48532104 C-6.07936478 127.27071198 -6.08452606 126.05610291 -6.08984375 124.8046875 C-6.0912587 123.56453888 -6.09267365 122.32439026 -6.09413147 121.04666138 C-6.09878904 117.74881867 -6.10777561 114.45102454 -6.11883545 111.15319824 C-6.12906269 107.78833613 -6.13363191 104.42346692 -6.13867188 101.05859375 C-6.14971731 94.45571007 -6.16646753 87.85285901 -6.1875 81.25 C-6.5175 81.25 -6.8475 81.25 -7.1875 81.25 Z M7.8125 157.25 C7.8125 242.72 7.8125 328.19 7.8125 416.25 C10.36867805 413.69382195 11.56148201 412.14513676 13.15234375 409.046875 C13.7875293 407.82291016 13.7875293 407.82291016 14.43554688 406.57421875 C15.08620117 405.29998047 15.08620117 405.29998047 15.75 404 C18.66448781 398.34580626 21.62798576 392.7568181 24.8125 387.25 C26.38454864 384.44279514 27.94161548 381.62730897 29.5 378.8125 C32.06685125 374.17859765 34.63704251 369.54729961 37.25390625 364.94140625 C41.281295 357.8503764 45.16144603 350.75203639 48.71875 343.41015625 C49.8125 341.25 49.8125 341.25 50.8125 340.25 C50.90891497 338.44039129 50.93437398 336.62697872 50.93275452 334.81480408 C50.93412918 333.63544785 50.93550385 332.45609161 50.93692017 331.24099731 C50.93332489 329.9354892 50.92972961 328.62998108 50.92602539 327.28491211 C50.92574352 325.90547182 50.92590125 324.52603139 50.9264679 323.14659119 C50.92675588 319.39055882 50.92085905 315.63455811 50.91389394 311.87853312 C50.90766051 307.95739955 50.90705661 304.03626533 50.90586853 300.11512756 C50.90275518 292.68488389 50.89454175 285.25465486 50.88451904 277.82441765 C50.87335801 269.36748362 50.86784748 260.9105489 50.86282361 252.45360935 C50.85235914 235.05239775 50.83475963 217.65120042 50.8125 200.25 C64.68683253 200.31074112 78.56098084 200.38857751 92.43510818 200.48571491 C98.87827541 200.53033432 105.32138062 200.56960908 111.76464844 200.59643555 C117.98933399 200.62255249 124.21377985 200.6630143 130.43831635 200.71318626 C132.80637365 200.7297983 135.17447237 200.74134767 137.54257965 200.74761391 C140.87401626 200.75731666 144.2048474 200.78544984 147.53613281 200.81762695 C148.98623749 200.81547432 148.98623749 200.81547432 150.46563721 200.8132782 C159.96139488 200.94195961 169.19529181 202.66559487 177.3125 207.75 C178.2715625 208.3378125 179.230625 208.925625 180.21875 209.53125 C182.48387642 211.03223738 184.66388695 212.58786538 186.8125 214.25 C185.53134474 202.66731057 179.24804985 191.15884765 171.8125 182.25 C171.1525 182.25 170.4925 182.25 169.8125 182.25 C169.58304688 181.67894531 169.35359375 181.10789063 169.1171875 180.51953125 C162.8531262 169.62306534 147.07049081 162.60996954 135.6015625 158.9765625 C94.37715618 148.23743144 50.41274193 157.25 7.8125 157.25 Z M-188.1875 161.25 C-188.27 175.605 -188.3525 189.96 -188.4375 204.75 C-188.47391602 209.25076172 -188.51033203 213.75152344 -188.54785156 218.38867188 C-188.56124489 222.49053349 -188.56124489 222.49053349 -188.5692749 226.59240723 C-188.57534101 228.3925779 -188.58924707 230.19273431 -188.60980225 231.99279785 C-188.77468092 247.21803291 -188.4525623 263.91783133 -178.1875 276.25 C-175.68146215 278.55909971 -173.06279973 280.43179576 -170.1875 282.25 C-169.424375 282.8275 -168.66125 283.405 -167.875 284 C-160.32094126 287.51351569 -152.39885469 287.25 -144.1875 287.25 C-144.1875 259.86 -144.1875 232.47 -144.1875 204.25 C-116.7975 204.25 -89.4075 204.25 -61.1875 204.25 C-61.1875 190.06 -61.1875 175.87 -61.1875 161.25 C-103.0975 161.25 -145.0075 161.25 -188.1875 161.25 Z M145.8125 211.25 C145.8125 238.64 145.8125 266.03 145.8125 294.25 C118.4225 294.25 91.0325 294.25 62.8125 294.25 C62.8125 308.77 62.8125 323.29 62.8125 338.25 C104.3925 338.25 145.9725 338.25 188.8125 338.25 C188.874375 322.78125 188.93625 307.3125 189 291.375 C189.02731201 286.50637207 189.05462402 281.63774414 189.08276367 276.62158203 C189.09280234 272.22423107 189.09280234 272.22423107 189.09883118 267.82687378 C189.10341172 265.88145891 189.11390819 263.93605209 189.12922668 261.99069214 C189.15136503 259.02896526 189.15421207 256.06775493 189.15307617 253.10595703 C189.16926766 251.82493701 189.16926766 251.82493701 189.18578625 250.5180378 C189.13077298 239.71577128 185.59410619 229.08106492 178.25 221.0625 C171.29426693 214.53027097 155.30654943 206.50297529 145.8125 211.25 Z " fill="#D41D24" transform="translate(255.1875,6.75)"/>
<path d="M0 0 C3 2 3 2 4 5.375 C4 9 4 9 1.875 11.375 C-0.86848237 12.92566395 -2.89180217 13.64477739 -6 14 C-4.79618552 11.50638429 -3.54571278 9.31856917 -2 7 C-8.55510947 7.93119312 -14.27125414 9.24651652 -20.22265625 12.1953125 C-22 13 -22 13 -24 13 C-23.505 14.485 -23.505 14.485 -23 16 C-24.9375 18.6875 -24.9375 18.6875 -27 21 C-25.88625 20.67 -24.7725 20.34 -23.625 20 C-18.83060244 18.81419704 -13.90464872 18.22426474 -9 19 C-6.703125 20.39453125 -6.703125 20.39453125 -5 22 C-5 22.66 -5 23.32 -5 24 C-6.59328125 24.27263672 -6.59328125 24.27263672 -8.21875 24.55078125 C-22.47262204 26.79569628 -22.47262204 26.79569628 -34 35 C-35.3242287 35.36784131 -36.65613912 35.71202981 -38 36 C-38.33 36.99 -38.66 37.98 -39 39 C-41.83355099 38.85771699 -44.66678787 38.71126584 -47.5 38.5625 C-48.29148437 38.52318359 -49.08296875 38.48386719 -49.8984375 38.44335938 C-54.97385441 38.17294782 -59.96375445 37.6872858 -65 37 C-65.20625 37.845625 -65.4125 38.69125 -65.625 39.5625 C-67.32137332 43.80343331 -69.7607202 46.80794002 -73 50 C-73.33 50 -73.66 50 -74 50 C-74.25026288 43.61829653 -74.25026288 43.61829653 -72.9375 40.375 C-71.77890999 37.43990531 -72.15453352 35.99756297 -73 33 C-73.185625 32.236875 -73.37125 31.47375 -73.5625 30.6875 C-73.706875 30.130625 -73.85125 29.57375 -74 29 C-72.35 28.01 -70.7 27.02 -69 26 C-69.350625 25.46375 -69.70125 24.9275 -70.0625 24.375 C-71.38688911 21.01988091 -71.16410918 19.42385054 -70 16 C-64.90064972 9.50244077 -56.11759445 5.80509352 -48.14453125 4.55078125 C-44.10608781 4.37779032 -41.82189727 4.40412448 -38.5 6.8125 C-37.32034412 8.5328315 -36.15706904 10.26439644 -35 12 C-34.12859375 11.46890625 -33.2571875 10.9378125 -32.359375 10.390625 C-22.1919928 4.31059653 -12.21158782 -1.16300836 0 0 Z " fill="#FDF7F7" transform="translate(435,87)"/>
<path d="M0 0 C4 4.94736842 4 4.94736842 4 7 C2.74896484 7.14695312 2.74896484 7.14695312 1.47265625 7.296875 C-5.65360057 8.2437774 -11.63797115 9.63700535 -18 13 C-18.99 13.495 -18.99 13.495 -20 14 C-19.35450195 14.03440186 -18.70900391 14.06880371 -18.04394531 14.10424805 C-15.11063108 14.27432964 -12.18093083 14.48050301 -9.25 14.6875 C-8.23421875 14.74099609 -7.2184375 14.79449219 -6.171875 14.84960938 C1.30673554 15.4154253 1.30673554 15.4154253 4.765625 18.33203125 C6 21 6 21 5.79321289 23.03295898 C4.79141152 25.51726603 3.92120857 25.9723248 1.54296875 27.140625 C0.84236328 27.48867187 0.14175781 27.83671875 -0.58007812 28.1953125 C-1.31677734 28.54335937 -2.05347656 28.89140625 -2.8125 29.25 C-3.53759766 29.61351562 -4.26269531 29.97703125 -5.00976562 30.3515625 C-8.75793057 32.17592092 -10.69563733 33 -15 33 C-15 33.66 -15 34.32 -15 35 C-15.73863281 35.35191406 -16.47726562 35.70382813 -17.23828125 36.06640625 C-22.64347516 38.69688817 -27.79767666 41.42767954 -32.8125 44.75 C-37.35748205 47.72525559 -41.43111295 50 -47 50 C-42.00950472 37.23695173 -18.53767846 28.51922599 -7 23 C-8.77117187 22.76216797 -8.77117187 22.76216797 -10.578125 22.51953125 C-12.13558571 22.28497391 -13.69286874 22.04923459 -15.25 21.8125 C-16.02730469 21.71130859 -16.80460937 21.61011719 -17.60546875 21.50585938 C-21.54467291 20.88299376 -23.55205482 20.39496962 -26.609375 17.69921875 C-28 15 -28 15 -28.09375 12.4140625 C-25.53983712 6.77721193 -17.8457669 4.22514134 -12.4140625 1.88671875 C-8.32121937 0.41301585 -4.33616688 -0.90756981 0 0 Z " fill="#FCF4F5" transform="translate(292,103)"/>
<path d="M0 0 C0.928125 0.37125 1.85625 0.7425 2.8125 1.125 C5 3 5 3 5.33203125 6.2109375 C4.56352058 14.98100043 -1.60248811 24.03257294 -8 30 C-11.0194213 32.40005283 -12.65077425 32.95634678 -16.5 33.4375 C-20 33 -20 33 -22.9375 31.6875 C-25.72606407 28.05391652 -25.70085557 25.45111021 -25.484375 20.953125 C-24.44058469 14.58937115 -21.67268812 9.7487194 -17.25 5.125 C-5.74850299 -2.39520958 -5.74850299 -2.39520958 0 0 Z " fill="#FCF5F5" transform="translate(357,99)"/>
<path d="M0 0 C-0.33 0.99 -0.66 1.98 -1 3 C-2.18078125 3.11214844 -3.3615625 3.22429687 -4.578125 3.33984375 C-6.13569361 3.53688556 -7.69297267 3.73622574 -9.25 3.9375 C-10.41595703 4.03901367 -10.41595703 4.03901367 -11.60546875 4.14257812 C-14.01518551 4.48240998 -15.83433801 4.88033614 -18 6 C-20.0092128 8.77410916 -20.95091736 11.76197815 -22 15 C-22.61042438 16.54410065 -23.23021158 18.08453325 -23.859375 19.62109375 C-24.48998555 21.22640456 -25.12018116 22.83187841 -25.75 24.4375 C-28.49066436 31.33202438 -31.29291937 38.19521091 -34.25 45 C-34.56678711 45.74693115 -34.88357422 46.4938623 -35.20996094 47.26342773 C-36.96288741 51.24062109 -38.61687354 54.12583947 -42 57 C-43.84989586 44.82151892 -38.41950596 34.06087313 -34 23 C-33.37704574 21.41558403 -32.75460849 19.83096464 -32.1328125 18.24609375 C-30.78064978 14.82017016 -29.40075982 11.40639321 -28 8 C-28.88042969 8.2165625 -29.76085937 8.433125 -30.66796875 8.65625 C-32.41013672 9.07390625 -32.41013672 9.07390625 -34.1875 9.5 C-35.33605469 9.7784375 -36.48460937 10.056875 -37.66796875 10.34375 C-40.56818829 10.91495385 -43.06096385 11.13283779 -46 11 C-47.35439668 8.29120665 -47.06501451 5.99066732 -47 3 C-45.77925781 2.80664062 -44.55851562 2.61328125 -43.30078125 2.4140625 C-42.51010254 2.28870117 -41.71942383 2.16333984 -40.90478516 2.03417969 C-39.16388959 1.75938773 -37.42267182 1.48662998 -35.68115234 1.21582031 C-31.87843386 0.62320714 -28.0863423 0.01586437 -24.30078125 -0.6796875 C-16.79828513 -2.02699923 -7.08455546 -3.54227773 0 0 Z " fill="#FCF4F5" transform="translate(345,97)"/>
<path d="M0 0 C3 2 3 2 4 5.375 C4 9 4 9 1.875 11.375 C-0.86848237 12.92566395 -2.89180217 13.64477739 -6 14 C-4.79618552 11.50638429 -3.54571278 9.31856917 -2 7 C-8.55510947 7.93119312 -14.27125414 9.24651652 -20.22265625 12.1953125 C-22 13 -22 13 -24 13 C-23.67 13.99 -23.34 14.98 -23 16 C-24.9375 18.6875 -24.9375 18.6875 -27 21 C-25.88625 20.67 -24.7725 20.34 -23.625 20 C-18.83060244 18.81419704 -13.90464872 18.22426474 -9 19 C-6.703125 20.39453125 -6.703125 20.39453125 -5 22 C-5 22.66 -5 23.32 -5 24 C-6.0621875 24.18175781 -7.124375 24.36351563 -8.21875 24.55078125 C-22.47262204 26.79569628 -22.47262204 26.79569628 -34 35 C-36.1875 35.9375 -36.1875 35.9375 -38 36 C-40 34 -40 34 -40.4375 31.3125 C-39.97768929 27.83107605 -39.50594356 27.14053526 -37.375 24.5625 C-35.94387576 22.87192977 -35.94387576 22.87192977 -35 21 C-35.5205946 17.12777361 -35.5205946 17.12777361 -37 14 C-26.46477525 6.07001521 -13.75945973 -1.81326214 0 0 Z " fill="#FDF8F8" transform="translate(435,87)"/>
<path d="M0 0 C1.17175781 0.01353516 1.17175781 0.01353516 2.3671875 0.02734375 C2.94726562 0.03894531 3.52734375 0.05054687 4.125 0.0625 C1.73536562 2.89149514 -0.17782218 3.61618312 -3.75390625 4.42578125 C-11.54125949 6.39153335 -18.77830293 9.56459169 -26.17382812 12.65429688 C-27.23923828 13.09193359 -28.30464844 13.52957031 -29.40234375 13.98046875 C-30.35874756 14.38031982 -31.31515137 14.7801709 -32.30053711 15.19213867 C-34.875 16.0625 -34.875 16.0625 -38.875 16.0625 C-38.6953125 13.75390625 -38.6953125 13.75390625 -37.875 11.0625 C-28.18924619 3.73786411 -11.97327276 -0.18141322 0 0 Z " fill="#FCF4F4" transform="translate(436.875,114.9375)"/>
<path d="M0 0 C1.625 1.6875 1.625 1.6875 3 4 C2.27984453 6.88062186 1.27941198 8.66685494 -0.625 10.9375 C-2.48717555 13.73076332 -2.28603427 15.71060587 -2 19 C-1.67 19.66 -1.34 20.32 -1 21 C-4.29412783 20.38753293 -7.5847447 19.75791405 -10.875 19.125 C-12.28072266 18.86396484 -12.28072266 18.86396484 -13.71484375 18.59765625 C-15.05869141 18.33662109 -15.05869141 18.33662109 -16.4296875 18.0703125 C-17.25710449 17.91320801 -18.08452148 17.75610352 -18.93701172 17.59423828 C-21 17 -21 17 -23 15 C-21.26363281 14.12988281 -21.26363281 14.12988281 -19.4921875 13.2421875 C-17.95281562 12.45372873 -16.41377032 11.66463214 -14.875 10.875 C-14.11445313 10.49601562 -13.35390625 10.11703125 -12.5703125 9.7265625 C-7.47269919 7.08986596 -3.85956193 4.25414974 0 0 Z " fill="#CB252B" transform="translate(398,102)"/>
<path d="M0 0 C-0.18263626 8.03599525 -4.57194835 15.29715463 -9.94921875 21.10546875 C-14.36178741 25 -14.36178741 25 -17 25 C-17.58629869 17.72989619 -16.53471679 11.92312391 -12 6 C-9.4921875 4.84765625 -9.4921875 4.84765625 -7 4 C-1.94117647 0 -1.94117647 0 0 0 Z " fill="#CD252B" transform="translate(355,102)"/>
<path d="M0 0 C-0.61875 0.721875 -1.2375 1.44375 -1.875 2.1875 C-4.09322387 4.83698446 -4.09322387 4.83698446 -5 7.75 C-5.33 8.4925 -5.66 9.235 -6 10 C-8.125 10.8125 -8.125 10.8125 -10 11 C-10 11.33 -10 11.66 -10 12 C-10.80824219 12.13277344 -11.61648438 12.26554687 -12.44921875 12.40234375 C-13.51785156 12.57894531 -14.58648437 12.75554687 -15.6875 12.9375 C-16.74324219 13.11152344 -17.79898437 13.28554687 -18.88671875 13.46484375 C-21.60249604 13.93167121 -24.30124235 14.44422616 -27 15 C-25.95833333 13.2421875 -24.91666667 11.484375 -23.875 9.7265625 C-22.84931652 8.02527333 -22.84931652 8.02527333 -23 6 C-6.46848396 -1.96186986 -6.46848396 -1.96186986 0 0 Z " fill="#CC282E" transform="translate(434,94)"/>
<path d="M0 0 C-1.10874958 3.32624874 -1.45665697 3.57359199 -4.30859375 5.26171875 C-4.97310547 5.65810547 -5.63761719 6.05449219 -6.32226562 6.46289062 C-7.02029297 6.86701172 -7.71832031 7.27113281 -8.4375 7.6875 C-9.13166016 8.10322266 -9.82582031 8.51894531 -10.54101562 8.94726562 C-15.71913485 12 -15.71913485 12 -18 12 C-17.40653044 8.74614968 -16.63076308 5.89229679 -15 3 C-10.48446473 0.13130701 -5.26270607 -0.40482354 0 0 Z " fill="#CA292F" transform="translate(393,98)"/>
<path d="M0 0 C0.6875 1.75 0.6875 1.75 1 4 C-0.4375 6.25 -0.4375 6.25 -2 8 C-1.01 8.33 -0.02 8.66 1 9 C1 11.31 1 13.62 1 16 C-0.875 15.6875 -0.875 15.6875 -3 15 C-5 12 -5 12 -4.75 8.5 C-4 5 -4 5 -2 2 C-1.34 2 -0.68 2 0 2 C0 1.34 0 0.68 0 0 Z " fill="#010101" transform="translate(248,144)"/>
<path d="M0 0 C0.99 0 1.98 0 3 0 C3 0.66 3 1.32 3 2 C4.65 1.67 6.3 1.34 8 1 C5.33625413 4.44720053 2.1163741 5.02703885 -2 6 C-2.66 6 -3.32 6 -4 6 C-2.84826645 3.53199953 -1.95216435 1.95216435 0 0 Z " fill="#ECCDCE" transform="translate(249,147)"/>
<path d="M0 0 C0.66 0.33 1.32 0.66 2 1 C1.01 2.98 0.02 4.96 -1 7 C-1.33 6.34 -1.66 5.68 -2 5 C-3.98 5 -5.96 5 -8 5 C-8 4.67 -8 4.34 -8 4 C-7.236875 3.896875 -6.47375 3.79375 -5.6875 3.6875 C-2.82940576 2.95635961 -1.84257115 2.23048087 0 0 Z " fill="#CD353A" transform="translate(399,122)"/>
</svg>
